<svg width="28" height="28" viewBox="0 0 28 28" fill="none" xmlns="http://www.w3.org/2000/svg">
<path d="M3.63232 10.8318V17.3253C3.63232 19.7111 3.63232 19.7111 5.88311 21.2304L12.0728 24.8091C13.0068 25.3493 14.5261 25.3493 15.4489 24.8091L21.6386 21.2304C23.8894 19.7111 23.8894 19.7111 23.8894 17.3365V10.8318C23.8894 8.4572 23.8894 8.4572 21.6386 6.93792L15.4489 3.35918C14.5261 2.81899 13.0068 2.81899 12.0728 3.35918L5.88311 6.93792C3.63232 8.4572 3.63232 8.4572 3.63232 10.8318Z" stroke="#FFFFFF" stroke-width="1.35047" stroke-linecap="round" stroke-linejoin="round"/>
<path d="M13.7609 17.4602C14.6564 17.4602 15.5151 17.1045 16.1483 16.4713C16.7814 15.8382 17.1371 14.9794 17.1371 14.084C17.1371 13.1886 16.7814 12.3298 16.1483 11.6967C15.5151 11.0635 14.6564 10.7078 13.7609 10.7078C12.8655 10.7078 12.0068 11.0635 11.3736 11.6967C10.7405 12.3298 10.3848 13.1886 10.3848 14.084C10.3848 14.9794 10.7405 15.8382 11.3736 16.4713C12.0068 17.1045 12.8655 17.4602 13.7609 17.4602V17.4602Z" stroke="#FFFFFF" stroke-width="1.35047" stroke-linecap="round" stroke-linejoin="round"/>
</svg>
